<svg xmlns="http://www.w3.org/2000/svg" viewBox="0 0 100 100">
  <rect width="100" height="100" fill="#1a1a1a"/>
  <g fill="#ffffff">
    <!-- Keyboard outline -->
    <rect x="10" y="30" width="80" height="45" rx="3" fill="none" stroke="#ffffff" stroke-width="2"/>
    
    <!-- Top row keys -->
    <rect x="15" y="35" width="6" height="6" rx="1"/>
    <rect x="23" y="35" width="6" height="6" rx="1"/>
    <rect x="31" y="35" width="6" height="6" rx="1"/>
    <rect x="39" y="35" width="6" height="6" rx="1"/>
    <rect x="47" y="35" width="6" height="6" rx="1"/>
    <rect x="55" y="35" width="6" height="6" rx="1"/>
    <rect x="63" y="35" width="6" height="6" rx="1"/>
    <rect x="71" y="35" width="6" height="6" rx="1"/>
    <rect x="79" y="35" width="6" height="6" rx="1"/>
    
    <!-- Middle row keys -->
    <rect x="15" y="44" width="6" height="6" rx="1"/>
    <rect x="23" y="44" width="6" height="6" rx="1"/>
    <rect x="31" y="44" width="6" height="6" rx="1"/>
    <rect x="39" y="44" width="6" height="6" rx="1"/>
    <rect x="47" y="44" width="6" height="6" rx="1"/>
    <rect x="55" y="44" width="6" height="6" rx="1"/>
    <rect x="63" y="44" width="6" height="6" rx="1"/>
    <rect x="71" y="44" width="6" height="6" rx="1"/>
    <rect x="79" y="44" width="6" height="6" rx="1"/>
    
    <!-- Bottom row keys -->
    <rect x="15" y="53" width="6" height="6" rx="1"/>
    <rect x="23" y="53" width="6" height="6" rx="1"/>
    <rect x="31" y="53" width="6" height="6" rx="1"/>
    <rect x="39" y="53" width="6" height="6" rx="1"/>
    <rect x="47" y="53" width="6" height="6" rx="1"/>
    <rect x="55" y="53" width="6" height="6" rx="1"/>
    <rect x="63" y="53" width="6" height="6" rx="1"/>
    <rect x="71" y="53" width="6" height="6" rx="1"/>
    
    <!-- Space bar -->
    <rect x="23" y="62" width="47" height="6" rx="1"/>
  </g>
</svg>
